ffmpeg started on 2025-05-13 at 10:03:39
Report written to "D:\Convert\FFMetrics\reports\ssim_report-6.txt"
Log level: 32
Command line:
ffmpeg -hide_banner -nostdin -i "G:\\\xc0\xed\xe8\xec\xe5\\\xce\xed\xe3\xee\xe8\xed\xe3\xe8\\!_35_\xcb\xe5\xf2\xee_2024\\DreamCast-1\\\xd3 \xec\xee\xe5\xe9 \xe6\xe5\xed\xfb \xed\xe5\xf2 \xfd\xec\xee\xf6\xe8\xe9\\[DC] Boku no Tsuma wa Kanjou ga Nai - 01_Telegram_HEVC.mkv" -i "G:\\\xc0\xed\xe8\xec\xe5\\\xce\xed\xe3\xee\xe8\xed\xe3\xe8\\!_35_\xcb\xe5\xf2\xee_2024\\DreamCast-1\\\xd3 \xec\xee\xe5\xe9 \xe6\xe5\xed\xfb \xed\xe5\xf2 \xfd\xec\xee\xf6\xe8\xe9\\[DC] Boku no Tsuma wa Kanjou ga Nai - 01_Telegram.mp4" -lavfi "[0:v]settb=AVTB,setpts=PTS-STARTPTS,format=pix_fmts=yuv420p10,fps=24000/1001,scale=1920:1080:flags=bicubic[main];[1:v]settb=AVTB,setpts=PTS-STARTPTS,format=pix_fmts=yuv420p,fps=24000/1001,scale=1920:1080:flags=bicubic[ref];[main][ref]ssim=eof_action=endall:stats_file='D\\:/Convert/FFMetrics/logs/ssim_logfile-6.txt'" -f null -
Input #0, matroska,webm, from 'G:\Аниме\Онгоинги\!_35_Лето_2024\DreamCast-1\У моей жены нет эмоций\[DC] Boku no Tsuma wa Kanjou ga Nai - 01_Telegram_HEVC.mkv':
  Metadata:
    COMPATIBLE_BRANDS: isomiso2avc1mp41
    MAJOR_BRAND     : isom
    MINOR_VERSION   : 512
    ENCODER         : Lavf61.7.100
  Duration: 00:23:46.69, start: -0.021000, bitrate: 1109 kb/s
  Stream #0:0: Video: hevc (Main 10), yuv420p10le(tv, bt709, progressive), 1920x1080 [SAR 1:1 DAR 16:9], 23.98 fps, 23.98 tbr, 1k tbn (default)
      Metadata:
        HANDLER_NAME    : VideoHandler
        VENDOR_ID       : [0][0][0][0]
        ENCODER         : Lavc61.19.100 libx265
        BPS             : 911751
        DURATION        : 00:23:46.591708333
        NUMBER_OF_FRAMES: 34204
        NUMBER_OF_BYTES : 162587057
        _STATISTICS_WRITING_APP: mkvpropedit v66.0.0 ('Josie') 64-bit
        _STATISTICS_WRITING_DATE_UTC: 2025-05-11 11:48:02
        _STATISTICS_TAGS: BPS DURATION NUMBER_OF_FRAMES NUMBER_OF_BYTES
  Stream #0:1: Audio: aac (LC), 48000 Hz, stereo, fltp (default)
      Metadata:
        HANDLER_NAME    : SoundHandler
        VENDOR_ID       : [0][0][0][0]
        ENCODER         : Lavc61.19.100 aac
        BPS             : 193509
        DURATION        : 00:23:46.688000000
        NUMBER_OF_FRAMES: 66877
        NUMBER_OF_BYTES : 34509708
        _STATISTICS_WRITING_APP: mkvpropedit v66.0.0 ('Josie') 64-bit
        _STATISTICS_WRITING_DATE_UTC: 2025-05-11 11:48:02
        _STATISTICS_TAGS: BPS DURATION NUMBER_OF_FRAMES NUMBER_OF_BYTES
Input #1, mov,mp4,m4a,3gp,3g2,mj2, from 'G:\Аниме\Онгоинги\!_35_Лето_2024\DreamCast-1\У моей жены нет эмоций\[DC] Boku no Tsuma wa Kanjou ga Nai - 01_Telegram.mp4':
  Metadata:
    major_brand     : isom
    minor_version   : 512
    compatible_brands: isomiso2avc1mp41
    encoder         : Lavf61.1.100
  Duration: 00:23:46.66, start: 0.000000, bitrate: 3889 kb/s
  Stream #1:0[0x1](und): Video: h264 (High) (avc1 / 0x31637661), yuv420p(tv, bt709, progressive), 1920x1080 [SAR 1:1 DAR 16:9], 3741 kb/s, 23.98 fps, 23.98 tbr, 24k tbn (default)
      Metadata:
        handler_name    : VideoHandler
        vendor_id       : [0][0][0][0]
        encoder         : Lavc61.3.100 h264_qsv
  Stream #1:1[0x2](und): Audio: aac (HE-AACv2) (mp4a / 0x6134706D), 48000 Hz, stereo, fltp, 144 kb/s (default)
      Metadata:
        handler_name    : SoundHandler
        vendor_id       : [0][0][0][0]
Stream mapping:
  Stream #0:0 (hevc) -> settb:default
  Stream #1:0 (h264) -> settb:default
  ssim:default -> Stream #0:0 (wrapped_avframe)
  Stream #0:1 -> #0:1 (aac (native) -> pcm_s16le (native))
Output #0, null, to 'pipe:':
  Metadata:
    COMPATIBLE_BRANDS: isomiso2avc1mp41
    MAJOR_BRAND     : isom
    MINOR_VERSION   : 512
    encoder         : Lavf61.7.100
  Stream #0:0: Video: wrapped_avframe, yuv420p10le(tv, bt709, progressive), 1920x1080 [SAR 1:1 DAR 16:9], q=2-31, 200 kb/s, 23.98 fps, 23.98 tbn
      Metadata:
        encoder         : Lavc61.19.100 wrapped_avframe
  Stream #0:1: Audio: pcm_s16le, 48000 Hz, stereo, s16, 1536 kb/s (default)
      Metadata:
        HANDLER_NAME    : SoundHandler
        VENDOR_ID       : [0][0][0][0]
        _STATISTICS_TAGS: BPS DURATION NUMBER_OF_FRAMES NUMBER_OF_BYTES
        BPS             : 193509
        DURATION        : 00:23:46.688000000
        NUMBER_OF_FRAMES: 66877
        NUMBER_OF_BYTES : 34509708
        _STATISTICS_WRITING_APP: mkvpropedit v66.0.0 ('Josie') 64-bit
        _STATISTICS_WRITING_DATE_UTC: 2025-05-11 11:48:02
        encoder         : Lavc61.19.100 pcm_s16le
frame=  181 fps=0.0 q=-0.0 size=N/A time=00:00:07.54 bitrate=N/A speed=14.6x    frame=  414 fps=404 q=-0.0 size=N/A time=00:00:17.26 bitrate=N/A speed=16.9x    frame=  626 fps=405 q=-0.0 size=N/A time=00:00:26.10 bitrate=N/A speed=16.9x    frame=  863 fps=421 q=-0.0 size=N/A time=00:00:35.99 bitrate=N/A speed=17.5x    frame= 1127 fps=438 q=-0.0 size=N/A time=00:00:47.00 bitrate=N/A speed=18.3x    frame= 1368 fps=442 q=-0.0 size=N/A time=00:00:57.05 bitrate=N/A speed=18.5x    frame= 1625 fps=451 q=-0.0 size=N/A time=00:01:07.77 bitrate=N/A speed=18.8x    frame= 1852 fps=449 q=-0.0 size=N/A time=00:01:17.24 bitrate=N/A speed=18.7x    frame= 2094 fps=452 q=-0.0 size=N/A time=00:01:27.33 bitrate=N/A speed=18.9x    frame= 2334 fps=453 q=-0.0 size=N/A time=00:01:37.34 bitrate=N/A speed=18.9x    frame= 2579 fps=456 q=-0.0 size=N/A time=00:01:47.56 bitrate=N/A speed=  19x    frame= 2834 fps=458 q=-0.0 size=N/A time=00:01:58.20 bitrate=N/A speed=19.1x    frame= 3079 fps=459 q=-0.0 size=N/A time=00:02:08.41 bitrate=N/A speed=19.2x    frame= 3294 fps=457 q=-0.0 size=N/A time=00:02:17.38 bitrate=N/A speed=19.1x    frame= 3508 fps=454 q=-0.0 size=N/A time=00:02:26.31 bitrate=N/A speed=18.9x    frame= 3718 fps=451 q=-0.0 size=N/A time=00:02:35.07 bitrate=N/A speed=18.8x    frame= 3911 fps=446 q=-0.0 size=N/A time=00:02:43.12 bitrate=N/A speed=18.6x    frame= 4124 fps=444 q=-0.0 size=N/A time=00:02:52.00 bitrate=N/A speed=18.5x    frame= 4321 fps=441 q=-0.0 size=N/A time=00:03:00.22 bitrate=N/A speed=18.4x    frame= 4502 fps=437 q=-0.0 size=N/A time=00:03:07.77 bitrate=N/A speed=18.2x    frame= 4688 fps=433 q=-0.0 size=N/A time=00:03:15.52 bitrate=N/A speed=18.1x    frame= 4839 fps=427 q=-0.0 size=N/A time=00:03:21.82 bitrate=N/A speed=17.8x    frame= 5054 fps=426 q=-0.0 size=N/A time=00:03:30.79 bitrate=N/A speed=17.8x    frame= 5256 fps=425 q=-0.0 size=N/A time=00:03:39.21 bitrate=N/A speed=17.7x    frame= 5467 fps=424 q=-0.0 size=N/A time=00:03:48.01 bitrate=N/A speed=17.7x    frame= 5661 fps=422 q=-0.0 size=N/A time=00:03:56.11 bitrate=N/A speed=17.6x    frame= 5898 fps=423 q=-0.0 size=N/A time=00:04:05.99 bitrate=N/A speed=17.7x    frame= 6135 fps=425 q=-0.0 size=N/A time=00:04:15.88 bitrate=N/A speed=17.7x    frame= 6364 fps=425 q=-0.0 size=N/A time=00:04:25.43 bitrate=N/A speed=17.7x    frame= 6606 fps=427 q=-0.0 size=N/A time=00:04:35.52 bitrate=N/A speed=17.8x    frame= 6838 fps=428 q=-0.0 size=N/A time=00:04:45.20 bitrate=N/A speed=17.8x    frame= 7091 fps=429 q=-0.0 size=N/A time=00:04:55.75 bitrate=N/A speed=17.9x    frame= 7300 fps=429 q=-0.0 size=N/A time=00:05:04.47 bitrate=N/A speed=17.9x    frame= 7522 fps=429 q=-0.0 size=N/A time=00:05:13.73 bitrate=N/A speed=17.9x    frame= 7732 fps=428 q=-0.0 size=N/A time=00:05:22.48 bitrate=N/A speed=17.9x    frame= 7978 fps=430 q=-0.0 size=N/A time=00:05:32.74 bitrate=N/A speed=17.9x    frame= 8225 fps=431 q=-0.0 size=N/A time=00:05:43.05 bitrate=N/A speed=  18x    frame= 8463 fps=432 q=-0.0 size=N/A time=00:05:52.97 bitrate=N/A speed=  18x    frame= 8726 fps=434 q=-0.0 size=N/A time=00:06:03.94 bitrate=N/A speed=18.1x    frame= 8964 fps=435 q=-0.0 size=N/A time=00:06:13.87 bitrate=N/A speed=18.1x    frame= 9204 fps=435 q=-0.0 size=N/A time=00:06:23.88 bitrate=N/A speed=18.1x    frame= 9444 fps=436 q=-0.0 size=N/A time=00:06:33.89 bitrate=N/A speed=18.2x    frame= 9683 fps=436 q=-0.0 size=N/A time=00:06:43.86 bitrate=N/A speed=18.2x    frame= 9917 fps=437 q=-0.0 size=N/A time=00:06:53.62 bitrate=N/A speed=18.2x    frame=10168 fps=438 q=-0.0 size=N/A time=00:07:04.09 bitrate=N/A speed=18.3x    frame=10387 fps=438 q=-0.0 size=N/A time=00:07:13.22 bitrate=N/A speed=18.3x    frame=10607 fps=438 q=-0.0 size=N/A time=00:07:22.40 bitrate=N/A speed=18.2x    frame=10863 fps=439 q=-0.0 size=N/A time=00:07:33.07 bitrate=N/A speed=18.3x    frame=11111 fps=440 q=-0.0 size=N/A time=00:07:43.42 bitrate=N/A speed=18.3x    frame=11351 fps=440 q=-0.0 size=N/A time=00:07:53.43 bitrate=N/A speed=18.4x    frame=11582 fps=440 q=-0.0 size=N/A time=00:08:03.06 bitrate=N/A speed=18.4x    frame=11830 fps=441 q=-0.0 size=N/A time=00:08:13.40 bitrate=N/A speed=18.4x    frame=12069 fps=441 q=-0.0 size=N/A time=00:08:23.37 bitrate=N/A speed=18.4x    frame=12317 fps=442 q=-0.0 size=N/A time=00:08:33.72 bitrate=N/A speed=18.4x    frame=12568 fps=443 q=-0.0 size=N/A time=00:08:44.19 bitrate=N/A speed=18.5x    frame=12824 fps=444 q=-0.0 size=N/A time=00:08:54.86 bitrate=N/A speed=18.5x    frame=13076 fps=445 q=-0.0 size=N/A time=00:09:05.37 bitrate=N/A speed=18.5x    frame=13314 fps=445 q=-0.0 size=N/A time=00:09:15.30 bitrate=N/A speed=18.5x    frame=13578 fps=446 q=-0.0 size=N/A time=00:09:26.31 bitrate=N/A speed=18.6x    frame=13791 fps=445 q=-0.0 size=N/A time=00:09:35.19 bitrate=N/A speed=18.6x    frame=14019 fps=445 q=-0.0 size=N/A time=00:09:44.70 bitrate=N/A speed=18.6x    frame=14243 fps=445 q=-0.0 size=N/A time=00:09:54.05 bitrate=N/A speed=18.6x    frame=14492 fps=446 q=-0.0 size=N/A time=00:10:04.43 bitrate=N/A speed=18.6x    frame=14757 fps=447 q=-0.0 size=N/A time=00:10:15.48 bitrate=N/A speed=18.6x    frame=14999 fps=447 q=-0.0 size=N/A time=00:10:25.58 bitrate=N/A speed=18.7x    frame=15263 fps=448 q=-0.0 size=N/A time=00:10:36.59 bitrate=N/A speed=18.7x    frame=15533 fps=449 q=-0.0 size=N/A time=00:10:47.85 bitrate=N/A speed=18.7x    frame=15801 fps=450 q=-0.0 size=N/A time=00:10:59.03 bitrate=N/A speed=18.8x    frame=16037 fps=450 q=-0.0 size=N/A time=00:11:08.87 bitrate=N/A speed=18.8x    frame=16297 fps=451 q=-0.0 size=N/A time=00:11:19.72 bitrate=N/A speed=18.8x    frame=16535 fps=451 q=-0.0 size=N/A time=00:11:29.64 bitrate=N/A speed=18.8x    frame=16784 fps=452 q=-0.0 size=N/A time=00:11:40.03 bitrate=N/A speed=18.8x    frame=16986 fps=451 q=-0.0 size=N/A time=00:11:48.45 bitrate=N/A speed=18.8x    frame=17226 fps=451 q=-0.0 size=N/A time=00:11:58.46 bitrate=N/A speed=18.8x    frame=17459 fps=451 q=-0.0 size=N/A time=00:12:08.18 bitrate=N/A speed=18.8x    frame=17713 fps=452 q=-0.0 size=N/A time=00:12:18.77 bitrate=N/A speed=18.8x    frame=17952 fps=452 q=-0.0 size=N/A time=00:12:28.74 bitrate=N/A speed=18.8x    frame=18207 fps=452 q=-0.0 size=N/A time=00:12:39.38 bitrate=N/A speed=18.9x    frame=18464 fps=453 q=-0.0 size=N/A time=00:12:50.10 bitrate=N/A speed=18.9x    frame=18695 fps=453 q=-0.0 size=N/A time=00:12:59.73 bitrate=N/A speed=18.9x    frame=18934 fps=453 q=-0.0 size=N/A time=00:13:09.70 bitrate=N/A speed=18.9x    frame=19177 fps=453 q=-0.0 size=N/A time=00:13:19.84 bitrate=N/A speed=18.9x    frame=19420 fps=453 q=-0.0 size=N/A time=00:13:29.97 bitrate=N/A speed=18.9x    frame=19670 fps=454 q=-0.0 size=N/A time=00:13:40.40 bitrate=N/A speed=18.9x    frame=19907 fps=454 q=-0.0 size=N/A time=00:13:50.28 bitrate=N/A speed=18.9x    frame=20164 fps=454 q=-0.0 size=N/A time=00:14:01.00 bitrate=N/A speed=18.9x    frame=20410 fps=455 q=-0.0 size=N/A time=00:14:11.26 bitrate=N/A speed=  19x    frame=20661 fps=455 q=-0.0 size=N/A time=00:14:21.73 bitrate=N/A speed=  19x    frame=20893 fps=455 q=-0.0 size=N/A time=00:14:31.41 bitrate=N/A speed=  19x    frame=21118 fps=455 q=-0.0 size=N/A time=00:14:40.79 bitrate=N/A speed=  19x    frame=21361 fps=455 q=-0.0 size=N/A time=00:14:50.93 bitrate=N/A speed=  19x    frame=21585 fps=454 q=-0.0 size=N/A time=00:15:00.27 bitrate=N/A speed=  19x    frame=21806 fps=454 q=-0.0 size=N/A time=00:15:09.49 bitrate=N/A speed=18.9x    frame=22050 fps=454 q=-0.0 size=N/A time=00:15:19.66 bitrate=N/A speed=  19x    frame=22290 fps=455 q=-0.0 size=N/A time=00:15:29.67 bitrate=N/A speed=  19x    frame=22549 fps=455 q=-0.0 size=N/A time=00:15:40.48 bitrate=N/A speed=  19x    frame=22771 fps=455 q=-0.0 size=N/A time=00:15:49.74 bitrate=N/A speed=  19x    frame=23015 fps=455 q=-0.0 size=N/A time=00:15:59.91 bitrate=N/A speed=  19x    frame=23261 fps=455 q=-0.0 size=N/A time=00:16:10.17 bitrate=N/A speed=  19x    frame=23509 fps=455 q=-0.0 size=N/A time=00:16:20.52 bitrate=N/A speed=  19x    frame=23730 fps=455 q=-0.0 size=N/A time=00:16:29.73 bitrate=N/A speed=  19x    frame=23999 fps=456 q=-0.0 size=N/A time=00:16:40.95 bitrate=N/A speed=  19x    frame=24276 fps=457 q=-0.0 size=N/A time=00:16:52.51 bitrate=N/A speed=  19x    frame=24536 fps=457 q=-0.0 size=N/A time=00:17:03.35 bitrate=N/A speed=19.1x    frame=24755 fps=457 q=-0.0 size=N/A time=00:17:12.48 bitrate=N/A speed=  19x    frame=25008 fps=457 q=-0.0 size=N/A time=00:17:23.04 bitrate=N/A speed=19.1x    frame=25241 fps=457 q=-0.0 size=N/A time=00:17:32.76 bitrate=N/A speed=19.1x    frame=25478 fps=457 q=-0.0 size=N/A time=00:17:42.64 bitrate=N/A speed=19.1x    frame=25754 fps=458 q=-0.0 size=N/A time=00:17:54.15 bitrate=N/A speed=19.1x    frame=26004 fps=458 q=-0.0 size=N/A time=00:18:04.58 bitrate=N/A speed=19.1x    frame=26232 fps=458 q=-0.0 size=N/A time=00:18:14.09 bitrate=N/A speed=19.1x    frame=26493 fps=458 q=-0.0 size=N/A time=00:18:24.97 bitrate=N/A speed=19.1x    frame=26771 fps=459 q=-0.0 size=N/A time=00:18:36.57 bitrate=N/A speed=19.1x    frame=27035 fps=459 q=-0.0 size=N/A time=00:18:47.58 bitrate=N/A speed=19.2x    frame=27292 fps=460 q=-0.0 size=N/A time=00:18:58.30 bitrate=N/A speed=19.2x    frame=27577 fps=461 q=-0.0 size=N/A time=00:19:10.19 bitrate=N/A speed=19.2x    frame=27840 fps=461 q=-0.0 size=N/A time=00:19:21.16 bitrate=N/A speed=19.2x    frame=28098 fps=461 q=-0.0 size=N/A time=00:19:31.92 bitrate=N/A speed=19.2x    frame=28314 fps=461 q=-0.0 size=N/A time=00:19:40.92 bitrate=N/A speed=19.2x    frame=28548 fps=461 q=-0.0 size=N/A time=00:19:50.68 bitrate=N/A speed=19.2x    frame=28783 fps=461 q=-0.0 size=N/A time=00:20:00.49 bitrate=N/A speed=19.2x    frame=29047 fps=461 q=-0.0 size=N/A time=00:20:11.50 bitrate=N/A speed=19.2x    frame=29293 fps=461 q=-0.0 size=N/A time=00:20:21.76 bitrate=N/A speed=19.2x    frame=29554 fps=462 q=-0.0 size=N/A time=00:20:32.64 bitrate=N/A speed=19.3x    frame=29827 fps=462 q=-0.0 size=N/A time=00:20:44.03 bitrate=N/A speed=19.3x    frame=30054 fps=462 q=-0.0 size=N/A time=00:20:53.50 bitrate=N/A speed=19.3x    frame=30290 fps=462 q=-0.0 size=N/A time=00:21:03.34 bitrate=N/A speed=19.3x    frame=30547 fps=462 q=-0.0 size=N/A time=00:21:14.06 bitrate=N/A speed=19.3x    frame=30793 fps=463 q=-0.0 size=N/A time=00:21:24.32 bitrate=N/A speed=19.3x    frame=31018 fps=462 q=-0.0 size=N/A time=00:21:33.70 bitrate=N/A speed=19.3x    frame=31245 fps=462 q=-0.0 size=N/A time=00:21:43.17 bitrate=N/A speed=19.3x    frame=31480 fps=462 q=-0.0 size=N/A time=00:21:52.97 bitrate=N/A speed=19.3x    frame=31722 fps=462 q=-0.0 size=N/A time=00:22:03.07 bitrate=N/A speed=19.3x    frame=31978 fps=462 q=-0.0 size=N/A time=00:22:13.74 bitrate=N/A speed=19.3x    frame=32187 fps=462 q=-0.0 size=N/A time=00:22:22.46 bitrate=N/A speed=19.3x    frame=32430 fps=462 q=-0.0 size=N/A time=00:22:32.60 bitrate=N/A speed=19.3x    frame=32632 fps=462 q=-0.0 size=N/A time=00:22:41.02 bitrate=N/A speed=19.2x    frame=32815 fps=461 q=-0.0 size=N/A time=00:22:48.65 bitrate=N/A speed=19.2x    frame=33016 fps=460 q=-0.0 size=N/A time=00:22:57.04 bitrate=N/A speed=19.2x    frame=33222 fps=460 q=-0.0 size=N/A time=00:23:05.63 bitrate=N/A speed=19.2x    frame=33415 fps=459 q=-0.0 size=N/A time=00:23:13.68 bitrate=N/A speed=19.2x    frame=33611 fps=459 q=-0.0 size=N/A time=00:23:21.85 bitrate=N/A speed=19.1x    frame=33832 fps=458 q=-0.0 size=N/A time=00:23:31.07 bitrate=N/A speed=19.1x    frame=34069 fps=459 q=-0.0 size=N/A time=00:23:40.96 bitrate=N/A speed=19.1x    [Parsed_ssim_10 @ 000002606b1fabc0] SSIM Y:0.994644 (22.711737) U:0.995462 (23.431169) V:0.995888 (23.859487) All:0.994988 (22.999677)
[out#0/null @ 000002605e142d40] video:14697KiB audio:267508KiB subtitle:0KiB other streams:0KiB global headers:0KiB muxing overhead: unknown
frame=34204 fps=458 q=-0.0 Lsize=N/A time=00:23:46.59 bitrate=N/A speed=19.1x    
